 <svg version="1.0" xmlns="http://www.w3.org/2000/svg" width="700.000000pt" height="700.000000pt" viewBox="0 0 700.000000 700.000000" preserveAspectRatio="xMidYMid meet">
<metadata>
Created by potrace 1.12, written by Peter Selinger 2001-2015
</metadata>
<g transform="translate(0.000000,700.000000) scale(0.100000,-0.100000)" fill="#000000" stroke="none">
<path d="M2645 3765 c0 -627 1 -885 2 -573 2 311 2 824 0 1140 -1 315 -2 60
-2 -567z"></path>
<path d="M3265 4480 c0 -234 1 -329 2 -213 2 117 2 309 0 425 -1 117 -2 22 -2
-212z"></path>
<path d="M3735 4480 c0 -234 1 -329 2 -213 2 117 2 309 0 425 -1 117 -2 22 -2
-212z"></path>
<path d="M4355 3765 c0 -627 1 -885 2 -573 2 311 2 824 0 1140 -1 315 -2 60
-2 -567z"></path>
<path d="M3265 3110 c0 -228 1 -322 2 -208 2 115 2 301 0 415 -1 115 -2 21 -2
-207z"></path>
<path d="M3735 3110 c0 -228 1 -322 2 -208 2 115 2 301 0 415 -1 115 -2 21 -2
-207z"></path>
<path d="M3262 2660 c0 -19 2 -27 5 -17 2 9 2 25 0 35 -3 9 -5 1 -5 -18z"></path>
<path d="M3732 2660 c0 -19 2 -27 5 -17 2 9 2 25 0 35 -3 9 -5 1 -5 -18z"></path>
<path d="M2668 2613 c6 -2 18 -2 25 0 6 3 1 5 -13 5 -14 0 -19 -2 -12 -5z"></path>
<path d="M2843 2613 c75 -2 199 -2 275 0 75 1 13 3 -138 3 -151 0 -213 -2
-137 -3z"></path>
<path d="M3883 2613 c75 -2 199 -2 275 0 75 1 13 3 -138 3 -151 0 -213 -2
-137 -3z"></path>
<path d="M4308 2613 c6 -2 18 -2 25 0 6 3 1 5 -13 5 -14 0 -19 -2 -12 -5z"></path>
</g>
</svg>